<mxfile host="app.diagrams.net" agent="Mozilla/5.0 (Macintosh; Intel Mac OS X 10_15_7) AppleWebKit/537.36 (KHTML, like Gecko) Chrome/126.0.0.0 Safari/537.36" version="24.7.4" pages="4">
  <diagram name="Page-1" id="Bn2-m5EpDkhbgJYhvkIY">
    <mxGraphModel dx="747" dy="431" grid="1" gridSize="10" guides="1" tooltips="1" connect="1" arrows="1" fold="1" page="1" pageScale="1" pageWidth="827" pageHeight="1169" math="0" shadow="0">
      <root>
        <mxCell id="0" />
        <mxCell id="1" parent="0" />
        <mxCell id="l7Dr_0tVBHBcoQGYo3rN-11" style="edgeStyle=orthogonalEdgeStyle;rounded=0;orthogonalLoop=1;jettySize=auto;html=1;exitX=0;exitY=0.5;exitDx=0;exitDy=0;" edge="1" parent="1" source="l7Dr_0tVBHBcoQGYo3rN-1">
          <mxGeometry relative="1" as="geometry">
            <mxPoint x="415" y="306.7142857142858" as="targetPoint" />
          </mxGeometry>
        </mxCell>
        <mxCell id="l7Dr_0tVBHBcoQGYo3rN-1" value="" style="rounded=0;whiteSpace=wrap;html=1;" vertex="1" parent="1">
          <mxGeometry x="525" y="242" width="120" height="130" as="geometry" />
        </mxCell>
        <mxCell id="l7Dr_0tVBHBcoQGYo3rN-2" value="Previous VDOM" style="text;html=1;align=center;verticalAlign=middle;resizable=0;points=[];autosize=1;strokeColor=none;fillColor=none;" vertex="1" parent="1">
          <mxGeometry x="520" y="180" width="110" height="30" as="geometry" />
        </mxCell>
        <mxCell id="l7Dr_0tVBHBcoQGYo3rN-16" style="edgeStyle=orthogonalEdgeStyle;rounded=0;orthogonalLoop=1;jettySize=auto;html=1;exitX=0;exitY=0.5;exitDx=0;exitDy=0;" edge="1" parent="1" source="l7Dr_0tVBHBcoQGYo3rN-3" target="l7Dr_0tVBHBcoQGYo3rN-5">
          <mxGeometry relative="1" as="geometry" />
        </mxCell>
        <mxCell id="l7Dr_0tVBHBcoQGYo3rN-3" value="" style="rounded=0;whiteSpace=wrap;html=1;" vertex="1" parent="1">
          <mxGeometry x="290" y="242" width="120" height="130" as="geometry" />
        </mxCell>
        <mxCell id="l7Dr_0tVBHBcoQGYo3rN-4" value="Current VDOM" style="text;html=1;align=center;verticalAlign=middle;resizable=0;points=[];autosize=1;strokeColor=none;fillColor=none;" vertex="1" parent="1">
          <mxGeometry x="290" y="180" width="100" height="30" as="geometry" />
        </mxCell>
        <mxCell id="l7Dr_0tVBHBcoQGYo3rN-5" value="" style="rounded=0;whiteSpace=wrap;html=1;" vertex="1" parent="1">
          <mxGeometry x="40" y="242" width="120" height="130" as="geometry" />
        </mxCell>
        <mxCell id="l7Dr_0tVBHBcoQGYo3rN-6" value="Actual DOM / Browser" style="text;html=1;align=center;verticalAlign=middle;resizable=0;points=[];autosize=1;strokeColor=none;fillColor=none;" vertex="1" parent="1">
          <mxGeometry x="30" y="180" width="140" height="30" as="geometry" />
        </mxCell>
        <mxCell id="l7Dr_0tVBHBcoQGYo3rN-9" style="edgeStyle=orthogonalEdgeStyle;rounded=0;orthogonalLoop=1;jettySize=auto;html=1;exitX=0.5;exitY=0;exitDx=0;exitDy=0;entryX=0.5;entryY=1;entryDx=0;entryDy=0;" edge="1" parent="1" source="l7Dr_0tVBHBcoQGYo3rN-7" target="l7Dr_0tVBHBcoQGYo3rN-1">
          <mxGeometry relative="1" as="geometry" />
        </mxCell>
        <mxCell id="l7Dr_0tVBHBcoQGYo3rN-7" value="JSX Code" style="rounded=0;whiteSpace=wrap;html=1;" vertex="1" parent="1">
          <mxGeometry x="525" y="462" width="120" height="60" as="geometry" />
        </mxCell>
        <mxCell id="l7Dr_0tVBHBcoQGYo3rN-8" value="Component" style="text;html=1;align=center;verticalAlign=middle;resizable=0;points=[];autosize=1;strokeColor=none;fillColor=none;" vertex="1" parent="1">
          <mxGeometry x="540" y="530" width="90" height="30" as="geometry" />
        </mxCell>
        <mxCell id="l7Dr_0tVBHBcoQGYo3rN-10" value="P" style="ellipse;whiteSpace=wrap;html=1;" vertex="1" parent="1">
          <mxGeometry x="570" y="272" width="30" height="30" as="geometry" />
        </mxCell>
        <mxCell id="l7Dr_0tVBHBcoQGYo3rN-14" value="P" style="ellipse;whiteSpace=wrap;html=1;" vertex="1" parent="1">
          <mxGeometry x="335" y="272" width="30" height="30" as="geometry" />
        </mxCell>
        <mxCell id="l7Dr_0tVBHBcoQGYo3rN-15" value="Diffing Algo" style="text;html=1;align=center;verticalAlign=middle;resizable=0;points=[];autosize=1;strokeColor=none;fillColor=none;" vertex="1" parent="1">
          <mxGeometry x="435" y="322" width="80" height="30" as="geometry" />
        </mxCell>
        <mxCell id="l7Dr_0tVBHBcoQGYo3rN-17" value="P" style="ellipse;whiteSpace=wrap;html=1;" vertex="1" parent="1">
          <mxGeometry x="85" y="272" width="30" height="30" as="geometry" />
        </mxCell>
        <mxCell id="l7Dr_0tVBHBcoQGYo3rN-19" style="edgeStyle=orthogonalEdgeStyle;rounded=0;orthogonalLoop=1;jettySize=auto;html=1;exitX=0.5;exitY=0;exitDx=0;exitDy=0;exitPerimeter=0;entryX=0.5;entryY=1;entryDx=0;entryDy=0;" edge="1" parent="1" source="l7Dr_0tVBHBcoQGYo3rN-18" target="l7Dr_0tVBHBcoQGYo3rN-5">
          <mxGeometry relative="1" as="geometry" />
        </mxCell>
        <mxCell id="l7Dr_0tVBHBcoQGYo3rN-23" style="edgeStyle=orthogonalEdgeStyle;rounded=0;orthogonalLoop=1;jettySize=auto;html=1;exitX=1;exitY=0.3333333333333333;exitDx=0;exitDy=0;exitPerimeter=0;entryX=0;entryY=0.5;entryDx=0;entryDy=0;" edge="1" parent="1" source="l7Dr_0tVBHBcoQGYo3rN-18" target="l7Dr_0tVBHBcoQGYo3rN-22">
          <mxGeometry relative="1" as="geometry" />
        </mxCell>
        <mxCell id="l7Dr_0tVBHBcoQGYo3rN-18" value="User" style="shape=umlActor;verticalLabelPosition=bottom;verticalAlign=top;html=1;outlineConnect=0;" vertex="1" parent="1">
          <mxGeometry x="85" y="462" width="30" height="60" as="geometry" />
        </mxCell>
        <mxCell id="l7Dr_0tVBHBcoQGYo3rN-24" style="edgeStyle=orthogonalEdgeStyle;rounded=0;orthogonalLoop=1;jettySize=auto;html=1;exitX=1;exitY=0.5;exitDx=0;exitDy=0;" edge="1" parent="1" source="l7Dr_0tVBHBcoQGYo3rN-22" target="l7Dr_0tVBHBcoQGYo3rN-7">
          <mxGeometry relative="1" as="geometry" />
        </mxCell>
        <mxCell id="l7Dr_0tVBHBcoQGYo3rN-22" value="Data Model / State" style="rounded=0;whiteSpace=wrap;html=1;" vertex="1" parent="1">
          <mxGeometry x="290" y="462" width="120" height="60" as="geometry" />
        </mxCell>
        <mxCell id="l7Dr_0tVBHBcoQGYo3rN-25" value="Reconciliation&lt;div&gt;Process&lt;/div&gt;" style="text;html=1;align=center;verticalAlign=middle;resizable=0;points=[];autosize=1;strokeColor=none;fillColor=none;" vertex="1" parent="1">
          <mxGeometry x="170" y="317" width="100" height="40" as="geometry" />
        </mxCell>
        <mxCell id="l7Dr_0tVBHBcoQGYo3rN-26" value="React DOM Update Process" style="text;strokeColor=none;fillColor=none;html=1;fontSize=24;fontStyle=1;verticalAlign=middle;align=center;" vertex="1" parent="1">
          <mxGeometry x="290" y="130" width="100" height="40" as="geometry" />
        </mxCell>
      </root>
    </mxGraphModel>
  </diagram>
  <diagram id="dg8ArLpuklHuD0XiEkiw" name="Page-2">
    <mxGraphModel dx="721" dy="417" grid="1" gridSize="10" guides="1" tooltips="1" connect="1" arrows="1" fold="1" page="1" pageScale="1" pageWidth="827" pageHeight="1169" math="0" shadow="0">
      <root>
        <mxCell id="0" />
        <mxCell id="1" parent="0" />
        <mxCell id="g2ur84V9hRBt_ge6llyN-3" value="" style="edgeStyle=orthogonalEdgeStyle;rounded=0;orthogonalLoop=1;jettySize=auto;html=1;" edge="1" parent="1" source="g2ur84V9hRBt_ge6llyN-1" target="g2ur84V9hRBt_ge6llyN-2">
          <mxGeometry relative="1" as="geometry" />
        </mxCell>
        <mxCell id="g2ur84V9hRBt_ge6llyN-1" value="App" style="rounded=0;whiteSpace=wrap;html=1;" vertex="1" parent="1">
          <mxGeometry x="354" y="150" width="120" height="60" as="geometry" />
        </mxCell>
        <mxCell id="g2ur84V9hRBt_ge6llyN-5" value="" style="edgeStyle=orthogonalEdgeStyle;rounded=0;orthogonalLoop=1;jettySize=auto;html=1;" edge="1" parent="1" source="g2ur84V9hRBt_ge6llyN-2" target="g2ur84V9hRBt_ge6llyN-4">
          <mxGeometry relative="1" as="geometry" />
        </mxCell>
        <mxCell id="g2ur84V9hRBt_ge6llyN-9" style="edgeStyle=orthogonalEdgeStyle;rounded=0;orthogonalLoop=1;jettySize=auto;html=1;exitX=0.5;exitY=1;exitDx=0;exitDy=0;entryX=0.5;entryY=0;entryDx=0;entryDy=0;" edge="1" parent="1" source="g2ur84V9hRBt_ge6llyN-2" target="g2ur84V9hRBt_ge6llyN-8">
          <mxGeometry relative="1" as="geometry" />
        </mxCell>
        <mxCell id="g2ur84V9hRBt_ge6llyN-2" value="Expenses" style="rounded=0;whiteSpace=wrap;html=1;" vertex="1" parent="1">
          <mxGeometry x="354" y="290" width="120" height="60" as="geometry" />
        </mxCell>
        <mxCell id="g2ur84V9hRBt_ge6llyN-4" value="ExpenseItem" style="rounded=0;whiteSpace=wrap;html=1;" vertex="1" parent="1">
          <mxGeometry x="354" y="430" width="120" height="60" as="geometry" />
        </mxCell>
        <mxCell id="g2ur84V9hRBt_ge6llyN-6" value="EXPENSES_ARRAY" style="text;html=1;align=center;verticalAlign=middle;resizable=0;points=[];autosize=1;strokeColor=none;fillColor=none;" vertex="1" parent="1">
          <mxGeometry x="490" y="305" width="140" height="30" as="geometry" />
        </mxCell>
        <mxCell id="g2ur84V9hRBt_ge6llyN-7" value="Props" style="text;html=1;align=center;verticalAlign=middle;resizable=0;points=[];autosize=1;strokeColor=none;fillColor=none;" vertex="1" parent="1">
          <mxGeometry x="424" y="370" width="50" height="30" as="geometry" />
        </mxCell>
        <mxCell id="g2ur84V9hRBt_ge6llyN-11" style="edgeStyle=orthogonalEdgeStyle;rounded=0;orthogonalLoop=1;jettySize=auto;html=1;exitX=0.25;exitY=0;exitDx=0;exitDy=0;entryX=0;entryY=0.5;entryDx=0;entryDy=0;" edge="1" parent="1" source="g2ur84V9hRBt_ge6llyN-8" target="g2ur84V9hRBt_ge6llyN-2">
          <mxGeometry relative="1" as="geometry" />
        </mxCell>
        <mxCell id="g2ur84V9hRBt_ge6llyN-8" value="ExpenseForm" style="rounded=0;whiteSpace=wrap;html=1;" vertex="1" parent="1">
          <mxGeometry x="180" y="430" width="120" height="60" as="geometry" />
        </mxCell>
        <mxCell id="g2ur84V9hRBt_ge6llyN-10" value="title&lt;div&gt;amount&lt;/div&gt;&lt;div&gt;createdAt&lt;/div&gt;" style="text;html=1;align=center;verticalAlign=middle;resizable=0;points=[];autosize=1;strokeColor=none;fillColor=none;fontStyle=1" vertex="1" parent="1">
          <mxGeometry x="90" y="430" width="70" height="60" as="geometry" />
        </mxCell>
        <mxCell id="g2ur84V9hRBt_ge6llyN-12" value="Lifting-up the State" style="text;html=1;align=center;verticalAlign=middle;resizable=0;points=[];autosize=1;strokeColor=#82b366;fillColor=#d5e8d4;fontStyle=1" vertex="1" parent="1">
          <mxGeometry x="70" y="188" width="120" height="30" as="geometry" />
        </mxCell>
        <mxCell id="g2ur84V9hRBt_ge6llyN-13" value="Functional Props" style="text;html=1;align=center;verticalAlign=middle;resizable=0;points=[];autosize=1;strokeColor=none;fillColor=none;" vertex="1" parent="1">
          <mxGeometry x="225" y="330" width="110" height="30" as="geometry" />
        </mxCell>
      </root>
    </mxGraphModel>
  </diagram>
  <diagram id="nx9hqNaJZfuc4iAZi8Ri" name="Page-3">
    <mxGraphModel dx="910" dy="525" grid="1" gridSize="10" guides="1" tooltips="1" connect="1" arrows="1" fold="1" page="1" pageScale="1" pageWidth="827" pageHeight="1169" math="0" shadow="0">
      <root>
        <mxCell id="0" />
        <mxCell id="1" parent="0" />
        <mxCell id="pGX0m2rfus1CtbdpOodL-3" value="" style="edgeStyle=orthogonalEdgeStyle;rounded=0;orthogonalLoop=1;jettySize=auto;html=1;" edge="1" parent="1" source="pGX0m2rfus1CtbdpOodL-1" target="pGX0m2rfus1CtbdpOodL-2">
          <mxGeometry relative="1" as="geometry" />
        </mxCell>
        <mxCell id="pGX0m2rfus1CtbdpOodL-5" style="edgeStyle=orthogonalEdgeStyle;rounded=0;orthogonalLoop=1;jettySize=auto;html=1;exitX=0.5;exitY=1;exitDx=0;exitDy=0;entryX=0.5;entryY=0;entryDx=0;entryDy=0;" edge="1" parent="1" source="pGX0m2rfus1CtbdpOodL-1" target="pGX0m2rfus1CtbdpOodL-4">
          <mxGeometry relative="1" as="geometry" />
        </mxCell>
        <mxCell id="pGX0m2rfus1CtbdpOodL-1" value="App" style="rounded=0;whiteSpace=wrap;html=1;" vertex="1" parent="1">
          <mxGeometry x="354" y="120" width="120" height="60" as="geometry" />
        </mxCell>
        <mxCell id="pGX0m2rfus1CtbdpOodL-8" style="edgeStyle=orthogonalEdgeStyle;rounded=0;orthogonalLoop=1;jettySize=auto;html=1;exitX=0.5;exitY=1;exitDx=0;exitDy=0;entryX=0.5;entryY=0;entryDx=0;entryDy=0;" edge="1" parent="1" source="pGX0m2rfus1CtbdpOodL-2" target="pGX0m2rfus1CtbdpOodL-7">
          <mxGeometry relative="1" as="geometry" />
        </mxCell>
        <mxCell id="pGX0m2rfus1CtbdpOodL-9" style="edgeStyle=orthogonalEdgeStyle;rounded=0;orthogonalLoop=1;jettySize=auto;html=1;exitX=0.5;exitY=1;exitDx=0;exitDy=0;" edge="1" parent="1" source="pGX0m2rfus1CtbdpOodL-2" target="pGX0m2rfus1CtbdpOodL-6">
          <mxGeometry relative="1" as="geometry" />
        </mxCell>
        <mxCell id="pGX0m2rfus1CtbdpOodL-2" value="Comp A" style="rounded=0;whiteSpace=wrap;html=1;" vertex="1" parent="1">
          <mxGeometry x="294" y="220" width="120" height="60" as="geometry" />
        </mxCell>
        <mxCell id="pGX0m2rfus1CtbdpOodL-12" style="edgeStyle=orthogonalEdgeStyle;rounded=0;orthogonalLoop=1;jettySize=auto;html=1;exitX=0.5;exitY=1;exitDx=0;exitDy=0;entryX=0.5;entryY=0;entryDx=0;entryDy=0;" edge="1" parent="1" source="pGX0m2rfus1CtbdpOodL-4" target="pGX0m2rfus1CtbdpOodL-10">
          <mxGeometry relative="1" as="geometry" />
        </mxCell>
        <mxCell id="pGX0m2rfus1CtbdpOodL-13" style="edgeStyle=orthogonalEdgeStyle;rounded=0;orthogonalLoop=1;jettySize=auto;html=1;exitX=0.5;exitY=1;exitDx=0;exitDy=0;" edge="1" parent="1" source="pGX0m2rfus1CtbdpOodL-4" target="pGX0m2rfus1CtbdpOodL-11">
          <mxGeometry relative="1" as="geometry" />
        </mxCell>
        <mxCell id="pGX0m2rfus1CtbdpOodL-4" value="Comp B" style="rounded=0;whiteSpace=wrap;html=1;" vertex="1" parent="1">
          <mxGeometry x="450" y="220" width="120" height="60" as="geometry" />
        </mxCell>
        <mxCell id="pGX0m2rfus1CtbdpOodL-21" style="edgeStyle=orthogonalEdgeStyle;rounded=0;orthogonalLoop=1;jettySize=auto;html=1;exitX=0;exitY=0.5;exitDx=0;exitDy=0;entryX=0;entryY=0.5;entryDx=0;entryDy=0;fillColor=#f8cecc;strokeColor=#b85450;strokeWidth=3;" edge="1" parent="1" source="pGX0m2rfus1CtbdpOodL-6" target="pGX0m2rfus1CtbdpOodL-14">
          <mxGeometry relative="1" as="geometry" />
        </mxCell>
        <mxCell id="pGX0m2rfus1CtbdpOodL-25" style="edgeStyle=orthogonalEdgeStyle;rounded=0;orthogonalLoop=1;jettySize=auto;html=1;exitX=0.5;exitY=1;exitDx=0;exitDy=0;entryX=0.5;entryY=0;entryDx=0;entryDy=0;" edge="1" parent="1" source="pGX0m2rfus1CtbdpOodL-6" target="pGX0m2rfus1CtbdpOodL-14">
          <mxGeometry relative="1" as="geometry" />
        </mxCell>
        <mxCell id="pGX0m2rfus1CtbdpOodL-6" value="Comp A1" style="rounded=0;whiteSpace=wrap;html=1;" vertex="1" parent="1">
          <mxGeometry x="138" y="320" width="120" height="60" as="geometry" />
        </mxCell>
        <mxCell id="pGX0m2rfus1CtbdpOodL-7" value="Comp A2" style="rounded=0;whiteSpace=wrap;html=1;" vertex="1" parent="1">
          <mxGeometry x="294" y="320" width="120" height="60" as="geometry" />
        </mxCell>
        <mxCell id="pGX0m2rfus1CtbdpOodL-17" style="edgeStyle=orthogonalEdgeStyle;rounded=0;orthogonalLoop=1;jettySize=auto;html=1;exitX=0.5;exitY=1;exitDx=0;exitDy=0;entryX=0.5;entryY=0;entryDx=0;entryDy=0;" edge="1" parent="1" source="pGX0m2rfus1CtbdpOodL-10" target="pGX0m2rfus1CtbdpOodL-15">
          <mxGeometry relative="1" as="geometry" />
        </mxCell>
        <mxCell id="pGX0m2rfus1CtbdpOodL-10" value="Comp B1" style="rounded=0;whiteSpace=wrap;html=1;" vertex="1" parent="1">
          <mxGeometry x="450" y="320" width="120" height="60" as="geometry" />
        </mxCell>
        <mxCell id="pGX0m2rfus1CtbdpOodL-11" value="Comp B2" style="rounded=0;whiteSpace=wrap;html=1;" vertex="1" parent="1">
          <mxGeometry x="606" y="320" width="120" height="60" as="geometry" />
        </mxCell>
        <mxCell id="pGX0m2rfus1CtbdpOodL-14" value="Comp A11" style="rounded=0;whiteSpace=wrap;html=1;" vertex="1" parent="1">
          <mxGeometry x="138" y="450" width="120" height="60" as="geometry" />
        </mxCell>
        <mxCell id="pGX0m2rfus1CtbdpOodL-15" value="Comp A2" style="rounded=0;whiteSpace=wrap;html=1;" vertex="1" parent="1">
          <mxGeometry x="450" y="430" width="120" height="60" as="geometry" />
        </mxCell>
        <mxCell id="pGX0m2rfus1CtbdpOodL-19" style="edgeStyle=orthogonalEdgeStyle;rounded=0;orthogonalLoop=1;jettySize=auto;html=1;exitX=0;exitY=0.5;exitDx=0;exitDy=0;entryX=0.148;entryY=-0.054;entryDx=0;entryDy=0;entryPerimeter=0;fillColor=#f8cecc;strokeColor=#b85450;strokeWidth=3;" edge="1" parent="1" source="pGX0m2rfus1CtbdpOodL-1" target="pGX0m2rfus1CtbdpOodL-2">
          <mxGeometry relative="1" as="geometry" />
        </mxCell>
        <mxCell id="pGX0m2rfus1CtbdpOodL-20" style="edgeStyle=orthogonalEdgeStyle;rounded=0;orthogonalLoop=1;jettySize=auto;html=1;exitX=0;exitY=0.5;exitDx=0;exitDy=0;entryX=0.194;entryY=-0.011;entryDx=0;entryDy=0;entryPerimeter=0;fillColor=#f8cecc;strokeColor=#b85450;strokeWidth=3;" edge="1" parent="1" source="pGX0m2rfus1CtbdpOodL-2" target="pGX0m2rfus1CtbdpOodL-6">
          <mxGeometry relative="1" as="geometry" />
        </mxCell>
        <mxCell id="pGX0m2rfus1CtbdpOodL-22" value="Props" style="text;html=1;align=center;verticalAlign=middle;resizable=0;points=[];autosize=1;strokeColor=#b85450;fillColor=#f8cecc;" vertex="1" parent="1">
          <mxGeometry x="235" y="158" width="50" height="30" as="geometry" />
        </mxCell>
        <mxCell id="pGX0m2rfus1CtbdpOodL-23" value="Props" style="text;html=1;align=center;verticalAlign=middle;resizable=0;points=[];autosize=1;strokeColor=#b85450;fillColor=#f8cecc;" vertex="1" parent="1">
          <mxGeometry x="95" y="268" width="50" height="30" as="geometry" />
        </mxCell>
        <mxCell id="pGX0m2rfus1CtbdpOodL-24" value="Props" style="text;html=1;align=center;verticalAlign=middle;resizable=0;points=[];autosize=1;strokeColor=#82b366;fillColor=#d5e8d4;" vertex="1" parent="1">
          <mxGeometry x="65" y="398" width="50" height="30" as="geometry" />
        </mxCell>
        <mxCell id="pGX0m2rfus1CtbdpOodL-28" style="edgeStyle=orthogonalEdgeStyle;rounded=0;orthogonalLoop=1;jettySize=auto;html=1;exitX=0.5;exitY=0;exitDx=0;exitDy=0;entryX=1;entryY=0.25;entryDx=0;entryDy=0;fillColor=#d5e8d4;strokeColor=#82b366;strokeWidth=3;" edge="1" parent="1" source="pGX0m2rfus1CtbdpOodL-26" target="pGX0m2rfus1CtbdpOodL-1">
          <mxGeometry relative="1" as="geometry" />
        </mxCell>
        <mxCell id="pGX0m2rfus1CtbdpOodL-30" style="edgeStyle=orthogonalEdgeStyle;rounded=0;orthogonalLoop=1;jettySize=auto;html=1;exitX=0.5;exitY=1;exitDx=0;exitDy=0;entryX=0.5;entryY=1;entryDx=0;entryDy=0;fillColor=#d5e8d4;strokeColor=#82b366;strokeWidth=3;" edge="1" parent="1" source="pGX0m2rfus1CtbdpOodL-26" target="pGX0m2rfus1CtbdpOodL-14">
          <mxGeometry relative="1" as="geometry" />
        </mxCell>
        <mxCell id="pGX0m2rfus1CtbdpOodL-26" value="Context API&lt;div&gt;Model&lt;/div&gt;" style="ellipse;whiteSpace=wrap;html=1;fillColor=#dae8fc;strokeColor=#6c8ebf;" vertex="1" parent="1">
          <mxGeometry x="790" y="243" width="120" height="80" as="geometry" />
        </mxCell>
        <mxCell id="pGX0m2rfus1CtbdpOodL-29" value="Provider" style="text;html=1;align=center;verticalAlign=middle;resizable=0;points=[];autosize=1;strokeColor=none;fillColor=none;" vertex="1" parent="1">
          <mxGeometry x="620" y="100" width="70" height="30" as="geometry" />
        </mxCell>
        <mxCell id="pGX0m2rfus1CtbdpOodL-31" value="Prop-Drilling" style="text;html=1;align=center;verticalAlign=middle;resizable=0;points=[];autosize=1;strokeColor=#82b366;fillColor=#d5e8d4;fontStyle=1" vertex="1" parent="1">
          <mxGeometry x="65" y="88" width="90" height="30" as="geometry" />
        </mxCell>
        <mxCell id="pGX0m2rfus1CtbdpOodL-32" value="Context API" style="text;strokeColor=none;fillColor=none;html=1;fontSize=24;fontStyle=1;verticalAlign=middle;align=center;" vertex="1" parent="1">
          <mxGeometry x="354" y="30" width="100" height="40" as="geometry" />
        </mxCell>
        <mxCell id="pGX0m2rfus1CtbdpOodL-33" value="Consumer" style="text;html=1;align=center;verticalAlign=middle;resizable=0;points=[];autosize=1;strokeColor=none;fillColor=none;fontStyle=1" vertex="1" parent="1">
          <mxGeometry x="490" y="540" width="80" height="30" as="geometry" />
        </mxCell>
      </root>
    </mxGraphModel>
  </diagram>
  <diagram id="rgnj53pM8v7CSaITdPww" name="Page-4">
    <mxGraphModel dx="697" dy="403" grid="1" gridSize="10" guides="1" tooltips="1" connect="1" arrows="1" fold="1" page="1" pageScale="1" pageWidth="827" pageHeight="1169" math="0" shadow="0">
      <root>
        <mxCell id="0" />
        <mxCell id="1" parent="0" />
        <mxCell id="SeHSAZthsXECyLRZh4Gh-1" value="Redux Unidirectional Data Flow Pattern" style="text;strokeColor=none;fillColor=none;html=1;fontSize=24;fontStyle=1;verticalAlign=middle;align=center;" vertex="1" parent="1">
          <mxGeometry x="360" y="90" width="100" height="40" as="geometry" />
        </mxCell>
        <mxCell id="SeHSAZthsXECyLRZh4Gh-4" value="" style="edgeStyle=orthogonalEdgeStyle;rounded=0;orthogonalLoop=1;jettySize=auto;html=1;" edge="1" parent="1" source="SeHSAZthsXECyLRZh4Gh-2" target="SeHSAZthsXECyLRZh4Gh-3">
          <mxGeometry relative="1" as="geometry" />
        </mxCell>
        <mxCell id="SeHSAZthsXECyLRZh4Gh-2" value="&lt;b&gt;View&lt;/b&gt; / React / Angular/ Vue / JavaScript" style="rounded=0;whiteSpace=wrap;html=1;" vertex="1" parent="1">
          <mxGeometry x="120" y="200" width="120" height="60" as="geometry" />
        </mxCell>
        <mxCell id="SeHSAZthsXECyLRZh4Gh-8" value="" style="edgeStyle=orthogonalEdgeStyle;rounded=0;orthogonalLoop=1;jettySize=auto;html=1;" edge="1" parent="1" source="SeHSAZthsXECyLRZh4Gh-3" target="SeHSAZthsXECyLRZh4Gh-7">
          <mxGeometry relative="1" as="geometry" />
        </mxCell>
        <mxCell id="SeHSAZthsXECyLRZh4Gh-3" value="Action" style="whiteSpace=wrap;html=1;rounded=0;" vertex="1" parent="1">
          <mxGeometry x="120" y="340" width="120" height="60" as="geometry" />
        </mxCell>
        <mxCell id="SeHSAZthsXECyLRZh4Gh-5" value="dispatch()" style="text;html=1;align=center;verticalAlign=middle;resizable=0;points=[];autosize=1;strokeColor=none;fillColor=none;" vertex="1" parent="1">
          <mxGeometry x="170" y="278" width="80" height="30" as="geometry" />
        </mxCell>
        <mxCell id="SeHSAZthsXECyLRZh4Gh-6" value="{ type: &quot;&quot;, payload? : &quot;&quot; }" style="text;html=1;align=center;verticalAlign=middle;resizable=0;points=[];autosize=1;strokeColor=none;fillColor=none;" vertex="1" parent="1">
          <mxGeometry x="100" y="400" width="150" height="30" as="geometry" />
        </mxCell>
        <mxCell id="SeHSAZthsXECyLRZh4Gh-11" value="" style="edgeStyle=orthogonalEdgeStyle;rounded=0;orthogonalLoop=1;jettySize=auto;html=1;" edge="1" parent="1" source="SeHSAZthsXECyLRZh4Gh-7" target="SeHSAZthsXECyLRZh4Gh-10">
          <mxGeometry relative="1" as="geometry" />
        </mxCell>
        <mxCell id="SeHSAZthsXECyLRZh4Gh-7" value="Reducer" style="whiteSpace=wrap;html=1;rounded=0;" vertex="1" parent="1">
          <mxGeometry x="430" y="340" width="120" height="60" as="geometry" />
        </mxCell>
        <mxCell id="SeHSAZthsXECyLRZh4Gh-9" value="(state, action) =&amp;gt; newState" style="text;html=1;align=center;verticalAlign=middle;resizable=0;points=[];autosize=1;strokeColor=none;fillColor=none;" vertex="1" parent="1">
          <mxGeometry x="395" y="398" width="170" height="30" as="geometry" />
        </mxCell>
        <mxCell id="SeHSAZthsXECyLRZh4Gh-12" style="edgeStyle=orthogonalEdgeStyle;rounded=0;orthogonalLoop=1;jettySize=auto;html=1;exitX=0;exitY=0.5;exitDx=0;exitDy=0;" edge="1" parent="1" source="SeHSAZthsXECyLRZh4Gh-10" target="SeHSAZthsXECyLRZh4Gh-2">
          <mxGeometry relative="1" as="geometry" />
        </mxCell>
        <mxCell id="SeHSAZthsXECyLRZh4Gh-10" value="&lt;b&gt;Store&lt;/b&gt; - Single Object&lt;div&gt;(Centralised place)&lt;/div&gt;" style="whiteSpace=wrap;html=1;rounded=0;" vertex="1" parent="1">
          <mxGeometry x="430" y="200" width="120" height="60" as="geometry" />
        </mxCell>
        <mxCell id="SeHSAZthsXECyLRZh4Gh-13" value="subscribe()" style="text;html=1;align=center;verticalAlign=middle;resizable=0;points=[];autosize=1;strokeColor=none;fillColor=none;" vertex="1" parent="1">
          <mxGeometry x="290" y="190" width="80" height="30" as="geometry" />
        </mxCell>
      </root>
    </mxGraphModel>
  </diagram>
</mxfile>
